<?xml version="1.0" encoding="UTF-8" standalone="yes"?>
<svg width="100mm" height="100mm" viewBox="0 0 100 100" version="1.2" baseProfile="tiny-ps" xmlns="http://www.w3.org/2000/svg">
  <title>bimi-svg-tiny-12-ps</title>
  <defs id="defs2"/>
  <rect id="rect4136" width="100" height="100" x="-0.33625209" y="-0.036205798" fill="#0c0a09" fill-opacity="1" stroke-width="0.264583"/>
  <g id="g401" transform="matrix(0.28850596,0,0,0.28544355,16.065858,12.606078)" fill="none">
    <path d="M 236.818,68.2932 118.605,0.0795898 0.391113,68.2932 V 140.885 L 118.605,209.099 236.818,140.885 Z" fill="#21272b" id="path374"/>
    <path d="m 113.607,132.377 c 3.093,-1.785 6.903,-1.785 9.996,0 l 98.205,56.668 c 6.67,3.849 6.67,13.475 0,17.323 l -93.207,53.784 c -6.186,3.57 -13.806,3.57 -19.992,0 L 15.4013,206.368 c -6.66936,-3.848 -6.66935,-13.474 0,-17.323 z" fill="#176734" id="path376"/>
    <path d="M 118.605,72.6714 236.818,140.885 118.605,209.099 0.391107,140.885 Z" fill="#21272b" id="path378"/>
    <path d="M 118.605,0.0795898 236.818,68.2932 118.605,136.507 0.391113,68.2932 Z" fill="#22c55e" id="path380"/>
    <path fill-rule="evenodd" d="M 118.605,7.00685 12.396,68.2932 118.605,129.58 224.813,68.2932 Z m 0,-6.9272602 L 0.391113,68.2932 0.48545,68.3477 H 0.39112 l -3e-6,72.5373 H 0.391543 0.39112 L 118.605,209.099 236.818,140.885 v 0 -72.5373 h -0.094 l 0.094,-0.0545 z M 230.818,137.423 V 71.7554 L 121.605,134.776 v 65.663 L 230.769,137.394 Z M 115.605,200.439 V 134.776 L 6.39112,71.7554 v 65.6676 l 0.0494,-0.029 z" fill="#f5f5f5" id="path386"/>
    <circle cx="12.3005" cy="12.3005" r="12.3005" transform="matrix(0.83205,-0.5547,0,1,193.595,116.918)" fill="#22c55e" id="circle382"/>
    <circle cx="12.3005" cy="12.3005" r="12.3005" transform="matrix(0.83205,-0.5547,0,1,143.49,145.284)" fill="#22c55e" id="circle384"/>
  </g>
</svg>
