<svg width="50" height="50" viewBox="0 0 50 50" fill="none" xmlns="http://www.w3.org/2000/svg">
<g clip-path="url(#clip0_48_16)">
<mask id="mask0_48_16" style="mask-type:luminance" maskUnits="userSpaceOnUse" x="0" y="0" width="100" height="100">
<path d="M100 0H0V100H100V0Z" fill="white"/>
</mask>
<g mask="url(#mask0_48_16)">
<path d="M27.3359 23.0762H22.1719V17.2754H27.3359V23.0762ZM27.3359 3.125H22.1719V9.05273H27.3359V3.125ZM33.4453 17.2656H28.2812V23.0664H33.4453V17.2656ZM21.2344 10.2246H16.0703V16.0938H21.2344V10.2246ZM27.3359 10.2246H22.1719V16.0938H27.3359V10.2246ZM48.9609 19.9902C47.8359 19.043 45.2422 18.7012 43.25 19.1699C42.9922 16.8262 41.9453 14.7852 40.039 12.9492L38.9453 12.041L38.2187 13.4082C36.7812 16.123 36.3906 20.5957 37.9297 23.5449C37.25 24.0039 35.914 24.6289 34.1484 24.5898H0.187487C-0.4922 29.5508 0.640613 35.9961 3.62499 40.4199C6.52343 44.707 10.8672 46.8848 16.5469 46.8848C28.8437 46.8848 37.9453 39.8047 42.2031 26.9434C43.875 26.9824 47.4844 26.9531 49.3359 22.5293C49.4531 22.2852 49.8515 21.2402 50 20.8594L48.9609 19.9902ZM9.03124 17.2656H3.87499V23.0664H9.03905V17.2656H9.03124ZM15.1328 17.2656H9.96874V23.0664H15.1328V17.2656ZM21.2344 17.2656H16.0703V23.0664H21.2344V17.2656ZM15.1328 10.2246H9.96874V16.0938H15.1328V10.2246Z" fill="black"/>
</g>
</g>
<defs>
<clipPath id="clip0_48_16">
<rect width="50" height="50" fill="white"/>
</clipPath>
</defs>
</svg>
