<svg width="50" height="50" viewBox="0 0 50 50" fill="none" xmlns="http://www.w3.org/2000/svg">
<g clip-path="url(#clip0_49_22)">
<path d="M24.6429 12.041C24.7545 12.0899 24.8438 12.2071 24.9777 12.2071C25.1005 12.2071 25.2902 12.168 25.3014 12.0606C25.3237 11.9239 25.0893 11.836 24.9443 11.7774C24.7545 11.709 24.509 11.6797 24.3304 11.7676C24.2858 11.7871 24.2411 11.836 24.2634 11.875C24.2969 12.002 24.5201 11.9825 24.6429 12.041ZM22.1987 12.2071C22.3326 12.2071 22.4219 12.0899 22.5335 12.041C22.6563 11.9825 22.8795 12.002 22.9242 11.8848C22.9465 11.8457 22.9018 11.7969 22.8572 11.7774C22.6786 11.6895 22.4331 11.7188 22.2434 11.7871C22.0983 11.8457 21.8639 11.9336 21.8862 12.0703C21.8974 12.168 22.0871 12.2168 22.1987 12.2071ZM46.8751 39.4336C46.4733 39.043 46.2835 38.3008 46.0715 37.5098C45.8706 36.7188 45.6362 35.8692 44.8996 35.3223C44.7545 35.2149 44.6094 35.1172 44.4532 35.0391C44.3081 34.961 44.1518 34.8926 43.9956 34.8438C45.0224 32.1778 44.6206 29.5215 43.5826 27.1192C42.3103 24.1797 40.0893 21.6114 38.3929 19.8535C36.4844 17.7539 34.6318 15.7617 34.6652 12.8223C34.721 8.33987 35.2344 0.00979386 26.2054 2.82397e-05C14.7768 -0.019503 17.634 10.0977 17.5112 13.2032C17.3215 15.4883 16.7969 17.2852 15.0001 19.5215C12.8907 21.7188 9.92193 25.2637 8.51568 28.9649C7.84604 30.7129 7.53354 32.4903 7.82372 34.1699C7.09827 34.7364 6.5514 35.6055 5.97104 36.1426C5.50229 36.5625 4.82149 36.7188 4.07372 36.9532C3.32595 37.1875 2.51122 37.5391 2.00899 38.3692C1.77461 38.75 1.69649 39.1602 1.69649 39.5801C1.69649 39.961 1.76345 40.3516 1.83041 40.7324C1.96434 41.5235 2.10943 42.2657 1.9197 42.7637C1.33934 44.1699 1.26122 45.1465 1.67416 45.8594C2.09827 46.5723 2.94649 46.8848 3.91747 47.0606C5.84827 47.4121 8.47104 47.3242 10.5358 48.2813C12.7456 49.2969 14.9889 49.6582 16.7746 49.2969C18.0693 49.043 19.1295 48.3594 19.6652 47.3242C21.0603 47.3145 22.6005 46.7969 25.0559 46.6797C26.7188 46.5625 28.8059 47.1973 31.2054 47.0801C31.2724 47.3047 31.3617 47.5293 31.4844 47.7344V47.7442C32.4108 49.375 34.1407 50.1172 35.9822 49.9903C37.8349 49.8633 39.788 48.916 41.3728 47.2657C42.8907 45.6641 45.3907 45 47.0536 44.1211C47.8795 43.6817 48.5492 43.1348 48.605 42.334C48.6496 41.5332 48.1139 40.6446 46.8751 39.4336ZM24.9666 8.52542C26.0603 6.35745 28.7835 6.39651 29.8773 8.48636C30.6027 9.87308 30.2791 11.5039 29.3974 12.4317C29.2188 12.3535 28.7389 12.1778 27.9911 11.9532C28.1139 11.836 28.3371 11.6895 28.4264 11.5039C28.9621 10.3516 28.4041 8.86722 27.4108 8.83792C26.596 8.78909 25.8594 9.89261 26.0938 11.084C25.6362 10.8887 25.0447 10.7422 24.6429 10.6543C24.5313 9.9805 24.6094 9.22854 24.9666 8.52542ZM20.4242 7.40237C21.5514 7.40237 22.7456 8.78909 22.5559 10.6739C22.1652 10.7715 21.7634 10.918 21.4175 11.1231C21.5514 10.2539 21.0492 9.16018 20.346 9.20901C19.4085 9.27737 19.2523 11.2793 20.1451 11.9532C20.2568 12.0313 20.3572 11.9336 19.4867 12.4903C17.7456 11.0645 18.3148 7.40237 20.4242 7.40237ZM18.9063 13.3301C19.5983 12.8809 20.4242 12.3535 20.48 12.3047C21.0045 11.875 21.9867 10.918 23.5938 10.918C24.3862 10.918 25.3349 11.1426 26.4844 11.7871C27.1876 12.1875 27.7456 12.2168 29.0068 12.6953C29.9443 13.0371 30.5358 13.6426 30.1786 14.4727C29.8884 15.166 28.9509 15.8789 27.6451 16.2403C26.4063 16.5918 25.4353 17.8028 23.3818 17.6953C22.9465 17.6758 22.6005 17.5977 22.3103 17.4903C21.4175 17.1485 20.9487 16.4746 20.0782 16.0254C19.1184 15.5567 18.605 15.0098 18.4376 14.5313C18.2813 14.0528 18.4376 13.6524 18.9063 13.3301ZM19.2746 45.9473C18.9733 49.375 14.3751 49.3067 10.8706 47.7051C7.53354 46.1621 3.21434 47.0703 2.33265 45.5664C2.06479 45.1074 2.06479 44.3262 2.62283 42.9883V42.9688C2.89068 42.2266 2.68979 41.4063 2.55586 40.6348C2.42193 39.8731 2.35497 39.1699 2.65631 38.6817C3.04693 38.0274 3.60497 37.793 4.30809 37.5782C5.45765 37.2168 5.62506 37.2461 6.49559 36.6114C7.10943 36.0547 7.55586 35.3516 8.09158 34.8535C8.66077 34.3164 9.20765 34.0625 10.067 34.1797C10.971 34.2969 11.7523 34.8438 12.5112 35.7422L14.6987 39.2188C15.759 41.1621 19.509 43.9453 19.2746 45.9473ZM19.1184 43.418C18.6608 42.7735 18.0469 42.0899 17.5112 41.5039C18.3036 41.5039 19.096 41.2891 19.3751 40.6348C19.6318 40.0293 19.3751 39.1797 18.5492 38.2032C17.0425 36.4258 14.2746 35.0293 14.2746 35.0293C12.7679 34.209 11.9197 33.2032 11.5291 32.1094C11.1385 31.0157 11.1943 29.834 11.4956 28.6719C12.076 26.4356 13.5715 24.2578 14.5313 22.8907C14.788 22.7246 14.6206 23.2032 13.5603 24.9219C12.6117 26.4942 10.8371 30.127 13.2701 32.9688C13.3371 30.9473 13.884 28.8867 14.8103 26.9629C16.1496 24.2871 18.9733 19.6485 19.1965 15.9571C19.3193 16.0352 19.7099 16.2696 19.8884 16.3575C20.4018 16.6211 20.7925 17.0117 21.2947 17.3633C22.6786 18.3399 24.4755 18.2617 26.0268 17.4805C26.7188 17.1387 27.2768 16.7481 27.8014 16.6016C28.9063 16.2989 29.788 15.7617 30.2902 15.1367C31.1496 18.1055 33.1585 22.3926 34.442 24.4824C35.1228 25.5957 36.4844 27.9492 37.076 30.791C37.4443 30.7813 37.8572 30.8301 38.2925 30.9278C39.8326 27.4414 36.9867 23.6817 35.692 22.6367C35.1675 22.1875 35.1451 21.9922 35.4018 22.002C36.8081 23.0957 38.6608 25.293 39.3304 27.7637C39.6429 28.8965 39.6987 30.0782 39.3751 31.25C41.2054 31.9141 43.3818 32.9981 42.8014 34.6485C42.5559 34.6387 42.4443 34.6485 42.3326 34.6485C42.6898 33.6621 41.8974 32.9297 39.788 32.0996C37.6005 31.2598 35.7701 31.2598 35.5135 33.3203C34.163 33.7305 33.471 34.7559 33.1251 35.9864C32.8126 37.0801 32.7233 38.3985 32.634 39.8828C32.5782 40.6348 32.2322 41.6407 31.8751 42.7149C28.2925 44.9512 23.3148 45.9278 19.1184 43.418ZM47.846 42.2949C47.7456 43.9356 43.2478 44.2383 40.7925 46.836C39.3193 48.3692 37.5112 49.2188 35.9264 49.3262C34.3416 49.4336 32.9688 48.8574 32.1652 47.4414C31.6407 46.3574 31.8974 45.1856 32.288 43.8965C32.7009 42.5098 33.3148 41.084 33.3929 39.9317C33.4822 38.4473 33.5826 37.1485 33.8617 36.1524C34.1518 35.1465 34.5983 34.4727 35.3907 34.0918C35.4242 34.0723 35.4688 34.0625 35.5023 34.043C35.5916 35.3321 36.317 36.6407 37.6005 36.9239C39.0068 37.2461 41.0268 36.1914 41.8862 35.3321C42.8907 35.3028 43.6384 35.2442 44.4085 35.8301C45.5134 36.6602 45.201 38.7891 46.317 39.8926C47.5001 41.0254 47.8795 41.7969 47.846 42.2949ZM19.3416 14.5215C19.5648 14.7071 19.8661 14.961 20.2344 15.2149C20.971 15.7227 21.9978 16.25 23.2813 16.25C24.576 16.25 25.7925 15.6739 26.8304 15.1953C27.3773 14.9414 28.0469 14.5117 28.4822 14.1797C28.9175 13.8477 29.1407 13.5645 28.8282 13.5352C28.5157 13.5059 28.538 13.7891 28.1585 14.0332C27.6675 14.3457 27.0759 14.7559 26.6072 14.9903C25.7813 15.4004 24.4309 15.9864 23.2701 15.9864C22.1094 15.9864 21.1831 15.5176 20.4911 15.0391C20.1451 14.795 19.855 14.5508 19.6318 14.3653C19.4643 14.2285 19.4197 13.916 19.1518 13.8867C18.9956 13.877 18.951 14.2481 19.3416 14.5215Z" fill="white"/>
</g>
<defs>
<clipPath id="clip0_49_22">
<rect width="50" height="50" fill="white"/>
</clipPath>
</defs>
</svg>
