<svg width="237" height="263" viewBox="0 0 237 263" fill="none" xmlns="http://www.w3.org/2000/svg">
<circle cx="12.3005" cy="12.3005" r="12.3005" transform="matrix(0.83205 -0.5547 0 1 193.595 116.918)" fill="#ffffff"/>
<circle cx="12.3005" cy="12.3005" r="12.3005" transform="matrix(0.83205 -0.5547 0 1 143.49 145.284)" fill="#ffffff"/>
<path fill-rule="evenodd" clip-rule="evenodd" d="M118.605 7.00685L12.396 68.2932L118.605 129.58L224.813 68.2932L118.605 7.00685ZM118.605 0.0795898L0.391113 68.2932L0.48545 68.3477H0.39112L0.391117 140.885H0.391543L0.39112 140.885L118.605 209.099L236.818 140.885L236.818 140.885V68.3477H236.724L236.818 68.2932L118.605 0.0795898ZM230.818 137.423V71.7554L121.605 134.776V200.439L230.769 137.394L230.818 137.423ZM115.605 200.439V134.776L6.39112 71.7554L6.39112 137.423L6.44052 137.394L115.605 200.439Z" fill="#ffffff"/>
<path opacity="0.333" d="m 49.62649,169.29431 -34.226564,19.75 c -6.66935,3.849 -6.66936,13.47427 0,17.32227 l 93.208994,53.78515 c 6.18599,3.57 13.80617,3.57 19.99217,0 l 93.20703,-53.78515 c 6.67,-3.848 6.67,-13.47327 0,-17.32227 l -34.22461,-19.75 L 118.605,209.099 Z" fill="#ffffff" />
</svg>
