<svg width="237" height="263" viewBox="0 0 237 263" fill="none" xmlns="http://www.w3.org/2000/svg">
<path d="M236.818 68.2932L118.605 0.0795898L0.391113 68.2932V140.885L118.605 209.099L236.818 140.885V68.2932Z" fill="#21272B"/>
<path opacity="0.5" d="M113.607 132.377C116.7 130.592 120.51 130.592 123.603 132.377L221.808 189.045C228.478 192.894 228.478 202.52 221.808 206.368L128.601 260.152C122.415 263.722 114.795 263.722 108.609 260.152L15.4013 206.368C8.73194 202.52 8.73195 192.894 15.4013 189.045L113.607 132.377Z" fill="#22C55E"/>
<path d="M118.605 72.6714L236.818 140.885L118.605 209.099L0.391107 140.885L118.605 72.6714Z" fill="#21272B"/>
<path d="M118.605 0.0795898L236.818 68.2932L118.605 136.507L0.391113 68.2932L118.605 0.0795898Z" fill="#22C55E"/>
<circle cx="12.3005" cy="12.3005" r="12.3005" transform="matrix(0.83205 -0.5547 0 1 193.595 116.918)" fill="#22C55E"/>
<circle cx="12.3005" cy="12.3005" r="12.3005" transform="matrix(0.83205 -0.5547 0 1 143.49 145.284)" fill="#22C55E"/>
<path fill-rule="evenodd" clip-rule="evenodd" d="M118.605 7.00685L12.396 68.2932L118.605 129.58L224.813 68.2932L118.605 7.00685ZM118.605 0.0795898L0.391113 68.2932L0.48545 68.3477H0.39112L0.391117 140.885H0.391543L0.39112 140.885L118.605 209.099L236.818 140.885L236.818 140.885V68.3477H236.724L236.818 68.2932L118.605 0.0795898ZM230.818 137.423V71.7554L121.605 134.776V200.439L230.769 137.394L230.818 137.423ZM115.605 200.439V134.776L6.39112 71.7554L6.39112 137.423L6.44052 137.394L115.605 200.439Z" fill="#F5F5F5"/>
</svg>
